  
http://www.imdb.com/title/tt1559547/



Plot:Ethan longs to escape his small Southern town. He meets a mysterious new girl, Lena. Together, they uncover dark secrets about their respective families, their history and their town. 



Director:
 Richard LaGravenese

Writers:
 Richard LaGravenese (screenplay), Kami Garcia (novel)

Stars:
 Alice Englert, Viola Davis, Emma Thompson

Genres:
 Drama | Fantasy | Romance 

Country:
USA 



General
Format                                   : AVI
Format/Info                              : Audio Video Interleave
File size                                : 1.87 GiB
Duration                                 : 2h 5mn
Overall bit rate                         : 2 123 Kbps

Video
ID                                       : 0
Format                                   : MPEG-4 Visual
Format settings, BVOP                    : Yes
Format settings, QPel                    : No
Format settings, GMC                     : No warppoints
Format settings, Matrix                  : Default (H.263)
Codec ID                                 : DX50
Codec ID/Hint                            : DivX 5
Duration                                 : 1h 56mn
Bit rate                                 : 2 200 Kbps
Width                                    : 780 pixels
Height                                   : 320 pixels
Display aspect ratio                     : 2.40:1
Frame rate                               : 29.970 fps
Color space                              : YUV
Chroma subsampling                       : 4:2:0
Bit depth                                : 8 bits
Scan type                                : Progressive
Compression mode                         : Lossy
Bits/(Pixel*Frame)                       : 0.294
Stream size                              : 1.79 GiB (96%)
Writing library                          : DivX 6.8.5 (UTC 2009-08-20)

Audio
ID                                       : 1
Format                                   : MPEG Audio
Format version                           : Version 2
Format profile                           : Layer 3
Codec ID                                 : 55
Codec ID/Hint                            : MP3
Duration                                 : 2h 5mn
Source duration                          : 1h 56mn
Bit rate mode                            : Constant
Bit rate                                 : 80.0 Kbps
Channel(s)                               : 2 channels
Sampling rate                            : 16.0 KHz
Compression mode                         : Lossy
Stream size                              : 66.8 MiB (3%)
Alignment                                : Aligned on interleaves
Interleave, duration                     : 36 ms (1.08 video frame)
Writing library                          : LAME3.98r
Encoding settings                        : -m s -V 4 -q 3 -lowpass 8 -b 80


 
http://bayimg.com/aakgmaaeG
 
http://bayimg.com/AaKgnaAeG
 
http://bayimg.com/aAkgoaAeg
 
http://bayimg.com/bakgaaaeg
 
http://bayimg.com/bAKgbAAEg
